<?xml version="1.0" standalone="no"?>
<!DOCTYPE svg PUBLIC "-//W3C//DTD SVG 20010904//EN"
 "http://www.w3.org/TR/2001/REC-SVG-20010904/DTD/svg10.dtd">
<svg version="1.0" xmlns="http://www.w3.org/2000/svg"
 width="718.000000pt" height="718.000000pt" viewBox="0 0 718.000000 718.000000"
 preserveAspectRatio="xMidYMid meet">
<metadata>
Created by potrace 1.11, written by Peter Selinger 2001-2013
</metadata>
<g transform="translate(0.000000,718.000000) scale(0.100000,-0.100000)"
fill="#000000" stroke="none">
<path d="M6810 6227 c-3 -3 -79 -10 -170 -17 -529 -37 -977 -74 -1680 -140
-173 -16 -470 -44 -660 -60 -328 -30 -348 -33 -407 -60 -124 -59 -191 -148
-180 -242 9 -72 47 -129 140 -208 67 -57 96 -75 159 -96 42 -14 81 -31 86 -37
10 -12 53 -385 71 -612 37 -449 39 -1185 7 -2185 -9 -261 -15 -655 -16 -875 0
-496 0 -495 133 -622 66 -64 89 -74 197 -90 121 -18 240 21 275 92 18 36 20
60 19 260 0 161 -6 274 -23 420 -43 382 -37 706 16 814 28 56 83 81 205 92 57
5 166 16 243 24 213 23 526 43 875 55 173 6 325 15 337 20 32 13 99 159 114
246 9 58 9 88 -4 170 -9 54 -22 117 -30 139 -22 64 -46 67 -283 45 -185 -17
-516 -45 -834 -71 -74 -6 -182 -22 -240 -36 -145 -34 -247 -41 -304 -19 -65
25 -73 38 -79 146 -3 52 -15 196 -26 320 -41 469 -57 931 -46 1333 l7 269 37
15 c143 61 529 105 1166 133 519 23 786 55 1055 126 104 28 173 63 192 97 17
30 23 286 9 361 -28 152 -74 188 -246 194 -60 2 -112 2 -115 -1z"/>
<path d="M1716 6025 c-98 -35 -185 -190 -143 -256 27 -43 117 -365 172 -618
95 -440 150 -838 225 -1646 71 -766 91 -955 126 -1235 19 -151 36 -280 39
-287 7 -21 -24 -124 -57 -186 -34 -63 -115 -143 -209 -206 -71 -48 -65 -47
-694 -66 -587 -18 -792 -33 -894 -68 -54 -19 -127 -72 -198 -144 -60 -61 -83
-105 -83 -160 0 -51 201 -252 278 -277 85 -28 185 -37 310 -27 64 6 200 15
302 21 426 26 785 60 855 80 186 53 411 138 585 222 92 44 115 61 186 133 143
146 216 276 228 405 3 36 11 115 17 177 10 107 9 121 -31 390 -60 407 -103
680 -175 1118 -161 981 -192 1171 -246 1545 -39 268 -86 643 -94 750 -7 80
-10 89 -57 162 -67 104 -111 142 -193 167 -78 24 -190 27 -249 6z"/>
</g>
</svg>
