<?xml version="1.0" encoding="UTF-8" standalone="no"?>
<svg
   xmlns:dc="http://purl.org/dc/elements/1.1/"
   xmlns:cc="http://creativecommons.org/ns#"
   xmlns:rdf="http://www.w3.org/1999/02/22-rdf-syntax-ns#"
   xmlns:svg="http://www.w3.org/2000/svg"
   xmlns="http://www.w3.org/2000/svg"
   version="1.1"
   id="svg4170"
   viewBox="0 0 1294.6947 277.25886"
   height="78.248611mm"
   width="365.39163mm">
  <defs
     id="defs4172" />
  <metadata
     id="metadata4175">
    <rdf:RDF>
      <cc:Work
         rdf:about="">
        <dc:format>image/svg+xml</dc:format>
        <dc:type
           rdf:resource="http://purl.org/dc/dcmitype/StillImage" />
        <dc:title></dc:title>
      </cc:Work>
    </rdf:RDF>
  </metadata>
  <g
     transform="translate(420.00965,-650.96972)"
     id="layer1">
    <path
       id="path4729"
       transform="translate(-420.00936,638.17675)"
       d="m 708.04102,12.792969 c -0.98444,0.0081 -1.97558,0.157192 -2.95704,0.248047 -3.1479,0.2914 -6.26203,0.865289 -9.39843,1.261718 -3.15098,0.39828 -6.30332,0.798004 -9.46289,1.121094 -3.99399,0.40842 -8.00615,0.623373 -12,1.033203 -6.8457,0.70247 -13.67352,1.57374 -20.5,2.44336 -5.33905,0.68013 -10.67585,1.381622 -16,2.169921 -2.00375,0.296681 -3.9959,0.668561 -6,0.962891 -11.31221,1.66135 -22.59064,3.78791 -34,4.53125 -8.76067,0.57077 -18.17934,3.17991 -26.33789,-0.0625 -1.82386,-0.72485 -2.48554,-3.26175 -4.29102,-4.03125 -6.23915,-2.65914 -13.87715,-3.172228 -20.31836,-1.048828 -3.26324,1.07575 -6.37881,3.498778 -7.96094,6.548828 -2.10346,4.05506 -2.20098,9.252756 -1.02148,13.666016 1.17949,4.41322 6.03894,7.079784 7.70312,11.333984 0.92093,2.3542 0.72449,5.00401 1.125,7.5 6.17056,38.45523 12.1613,72.617387 17.70508,111.167967 0.27075,1.88273 1.03195,3.80256 0.66016,5.66797 -0.35142,1.76319 -1.75372,3.1396 -2.63086,4.70898 -0.87714,1.56939 -2.17929,2.96681 -2.63086,4.70704 -0.17783,0.68532 0.003,1.41699 0.004,2.125 10e-4,0.70802 -0.20145,1.44543 0.004,2.12304 0.52205,1.72348 1.99183,3 2.98828,4.5 0.99644,1.5 2.47626,2.7741 2.99024,4.5 1.90282,6.38954 -0.10049,13.33333 -0.15039,20 -0.0498,6.66667 0.23527,13.3442 -0.14844,20 -0.15266,2.64803 -0.60198,5.27183 -0.85547,7.91211 -0.65376,6.80923 -4.42657,14.16828 -1.7168,20.44922 2.25907,5.23626 8.04057,8.66592 13.38477,10.65625 4.78379,1.78162 10.68114,2.79312 15.30078,0.6211 3.58225,-1.68429 5.93298,-5.6929 7.19922,-9.44336 0.23885,-0.70744 0.0557,-1.49565 0,-2.24024 -0.24143,-3.22601 -0.89278,-6.41016 -1.44531,-9.59766 -0.42685,-2.46241 -1.18266,-4.87212 -1.44532,-7.35742 -0.74429,-7.04253 -0.23519,-14.16141 -0.35351,-21.24218 -0.11832,-7.08077 -4.83218,-15.7549 -0.35547,-21.24219 0.70321,-0.86196 2.18595,-0.41013 3.2793,-0.61524 1.09335,-0.20511 2.17182,-0.53383 3.28125,-0.61523 5.24634,-0.38513 10.51184,0.44278 15.76953,0.61328 7.15441,0.23201 14.30884,0.49924 21.4668,0.55664 1.89931,0.0152 4.18622,-1.2075 5.69726,-0.0566 1.04266,0.79408 0.70669,2.52525 1.00781,3.80078 1.70517,7.22304 3.02836,14.53135 4.52344,21.80078 0.39401,1.91575 0.75643,3.83879 1.17188,5.75 0.19978,0.91909 0.70926,1.81046 0.63476,2.74805 -0.15508,1.95159 -1.47272,3.62934 -2.20898,5.44336 -0.73626,1.81402 -2.04037,3.49094 -2.20899,5.44141 -0.0972,1.12421 0.41839,2.21982 0.71485,3.30859 0.65091,2.39054 1.45187,4.74188 2.33007,7.05859 0.48229,1.2723 0.79815,2.65908 1.61133,3.75 0.88385,1.18573 2.19655,1.993 3.40625,2.84375 3.01227,2.11847 5.97035,4.64698 9.53125,5.58594 3.43407,0.90552 7.18576,0.61742 10.65235,-0.1543 2.79664,-0.62258 6.03063,-1.30841 7.83593,-3.5332 0.61742,-0.76089 0.43186,-1.91163 0.63086,-2.87109 0.45836,-2.20995 0.64382,-4.48409 1.29688,-6.64453 0.5459,-1.80596 0.60625,-4.17964 2.17578,-5.22657 0.83191,-0.55491 2.05428,-0.32498 3,0 2.05067,0.70467 3.37348,2.72786 5.13086,3.99805 1.4503,1.04824 2.90656,2.09973 4.46094,2.98633 8.71852,4.97294 17.83069,9.29411 27.15234,13.01562 11.95811,4.77408 23.95594,10.48624 36.75586,11.88282 3.72922,0.40689 7.6658,0.18419 11.20117,-1.07032 2.09239,-0.74247 4.02029,-2.07724 5.54883,-3.6875 1.23871,-1.30494 2.10009,-2.96676 2.75,-4.64453 0.33301,-0.85968 0.12262,-1.89771 0.56055,-2.70898 0.12582,-0.23309 0.30405,-0.50255 0.5625,-0.56055 1.27404,-0.28601 2.41602,1.02119 3.6875,1.31836 18.57027,4.34022 37.86912,8.61675 56.83203,6.5918 4.50171,-0.48071 9.1159,-1.82702 12.85547,-4.37891 1.88942,-1.28935 3.63747,-3.09632 4.42968,-5.24219 1.40143,-3.79609 2.01595,-8.58955 0.0723,-12.13867 -2.42737,-4.43227 -7.88374,-7.01643 -12.82227,-8.08789 -9.05191,-1.96389 -18.27451,4.01754 -27.5332,3.75195 -9.72464,-0.27896 -19.86076,-1.41142 -28.64453,-5.59375 -2.02688,-0.96508 -4.41376,-2.20267 -5.16992,-4.3164 -0.41307,-1.15467 -0.21266,-2.78241 0.6875,-3.61524 2.33635,-2.16159 6.33698,-0.61524 9.49023,-1.04882 9.04643,-1.24394 18.49521,-1.20751 27.03125,-4.45118 2.87481,-1.09242 6.17969,-2.3104 7.80078,-4.92382 1.86662,-3.00926 1.9716,-7.13873 1.08985,-10.56836 -0.72734,-2.82904 -2.57985,-5.55598 -4.99219,-7.20313 -2.95384,-2.01689 -6.86241,-2.37187 -10.4375,-2.48047 -7.52241,-0.22851 -14.80254,2.74296 -22.24219,3.87891 -1.40974,0.21525 -2.87211,0.95041 -4.24219,0.55469 -1.2333,-0.35621 -2.70929,-1.20098 -2.96484,-2.45899 -0.41509,-2.04341 1.75381,-3.79858 2.875,-5.55664 1.64083,-2.57287 3.67561,-4.8736 5.59961,-7.24219 0.96683,-1.19023 1.70524,-2.65429 2.98438,-3.5 1.62666,-1.0755 3.68755,-1.28769 5.58203,-1.75 8.2727,-2.0188 16.78472,-2.89679 25.1582,-4.44531 0.91804,-0.16978 1.83969,-0.73853 2.75,-0.53125 1.21433,0.2765 2.44029,1.114 3,2.22656 0.14596,0.29013 0,0.64984 0,0.97461 0,0.32477 -0.16886,0.69719 0,0.97461 1.21622,1.99815 3.99203,2.55001 6.23242,3.22266 2.333,0.7005 4.83218,0.82419 7.26758,0.77539 2.52643,-0.0506 5.0155,-0.6443 7.5,-1.10547 3.52693,-0.65466 7.00935,-1.53088 10.5,-2.35742 2.59062,-0.61343 5.13705,-1.41969 7.75,-1.92969 1.56968,-0.30637 3.54206,-1.72588 4.75,-0.67773 0.15533,0.13478 0.0428,0.41603 0,0.61718 -1.09342,5.13682 -2.58136,10.80415 -6.41797,14.39063 -2.9784,2.78422 -8.12895,1.89709 -11.48047,4.21875 -1.76209,1.22063 -3.7576,2.77309 -4.19726,4.87109 -1.00954,4.81741 1.42461,10.14651 4.33593,14.11524 0.20467,0.27901 0.69049,0.28372 0.85547,0.58789 1.73469,3.19816 0.19151,7.27504 0.28711,10.91211 0.0956,3.63707 -0.58303,7.37741 0.28711,10.91015 0.8731,3.54473 2.73949,6.83728 4.83008,9.83008 3.34561,4.78945 7.30684,9.34311 12.10937,12.66992 4.13865,2.86693 9.00676,4.71069 13.89063,5.9336 8.76367,2.1944 17.96619,2.26777 27,2.35547 3.43168,0.0333 6.87564,-0.1995 10.27148,-0.69532 6.59546,-0.963 13.12188,-2.48539 19.50391,-4.4082 1.63057,-0.49127 3.43149,-0.76848 4.77539,-1.81445 1.44381,-1.12373 2.51984,-2.7779 3.14844,-4.4961 0.66326,-1.81295 0.70087,-3.84528 0.52344,-5.76758 -0.25264,-2.7371 -0.52518,-5.78476 -2.23438,-7.9375 -1.49979,-1.88896 -4.02762,-2.8018 -6.33984,-3.48828 -2.2021,-0.65379 -4.57871,-0.62238 -6.87305,-0.50976 -3.64188,0.17876 -7.18041,1.26364 -10.77539,1.87304 -4.23294,0.71754 -8.42817,1.77195 -12.70899,2.09961 -4.15476,0.31801 -8.35807,0.31907 -12.5,-0.13671 -2.72352,-0.2997 -5.34748,-1.19694 -8.04101,-1.69922 -1.07884,-0.20118 -2.32636,0.0653 -3.25,-0.52735 -2.11938,-1.35991 -3.60889,-3.82882 -4.20508,-6.27539 -0.66027,-2.70952 -0.0659,-5.71165 0.93555,-8.31445 0.5921,-1.53888 1.72371,-2.84876 2.88476,-4.01953 1.57213,-1.58529 3.35696,-3.06768 5.40821,-3.94922 12.22907,-5.25552 27.10621,-1.80748 39.27929,-7.19141 3.78465,-1.67388 7.34076,-4.25667 9.8711,-7.53125 1.49396,-1.93338 2.66884,-4.32188 2.83203,-6.75976 0.17844,-2.66568 -0.35881,-5.70028 -2.08399,-7.74024 -1.46166,-1.72836 -4.0001,-2.19868 -6.17382,-2.83008 -2.56745,-0.74574 -5.27376,-1.09813 -7.94727,-1.08203 -3.03291,0.0183 -6.02893,0.72828 -9,1.33789 -2.71649,0.55738 -5.33771,1.51443 -8.04492,2.11524 -1.23787,0.27472 -2.78694,1.51352 -3.74219,0.67969 -1.3836,-1.20774 0.16129,-3.66912 0.24219,-5.50391 0.0809,-1.83479 0.86446,-3.77792 0.24219,-5.50586 -0.2946,-0.81806 -1.22893,-1.23753 -1.75,-1.93359 -0.66903,-0.8937 -1.44697,-1.78101 -1.75,-2.85547 -0.0834,-0.29556 -0.20726,-0.69529 0,-0.92188 1.07289,-1.17296 3.1619,-0.35403 4.75,-0.42382 11.32985,-0.49787 22.6828,0.10112 34.02343,0.043 3.4243,-0.0176 7.08904,1.14504 10.27149,-0.11914 3.68876,-1.4653 7.1776,-4.42845 8.75586,-8.07031 0.85224,-1.96656 0.87802,-4.49908 -0.0527,-6.42969 -1.07326,-2.22609 -3.51392,-3.64132 -5.76367,-4.66406 -2.46555,-1.12084 -5.31438,-1.07957 -8.00391,-1.39844 -13.75816,-1.63119 -27.63383,-2.15491 -41.48046,-2.62304 -6.66292,-0.22526 -13.36404,-0.72764 -20,-0.0879 -1.86073,0.17939 -3.65842,0.77465 -5.5,1.0957 -7.13139,1.24324 -14.32073,2.11911 -21.47657,3.21289 -5.55772,0.8495 -11.12712,1.63689 -16.66601,2.60156 -2.90523,0.50598 -5.73855,1.68088 -8.6875,1.67188 -2.89366,-0.009 -5.67542,-1.12774 -8.51367,-1.69141 -2.83824,-0.56367 -5.63048,-1.46953 -8.51563,-1.69141 -4.76363,-0.36635 -9.55155,0.31739 -14.32031,0.60938 -6.94916,0.4255 -13.92268,0.7182 -20.82031,1.66406 -12.95434,1.77641 -26.1696,3.16457 -38.5,7.51563 -3.03983,1.07267 -6.26685,2.24276 -8.55274,4.51562 -0.9757,0.97013 -1.6134,2.30387 -1.94726,3.63867 -0.53637,2.14443 -0.57622,4.49886 0.008,6.63086 0.35785,1.30676 1.29176,2.38841 2.06641,3.5 1.37111,1.96753 2.86263,3.87096 4.54687,5.57813 0.75702,0.76732 2.00996,1.10544 2.47852,2.07617 0.27878,0.57755 0.0742,1.28302 0.0488,1.92383 -0.13223,3.33064 -0.64871,6.63444 -1.05078,9.94336 -0.32553,2.67907 -1.05686,5.32307 -1.10156,8.02148 -0.0802,4.84079 0.34993,9.74392 1.49805,14.44727 1.15022,4.71191 3.44034,9.07064 5.33593,13.53515 0.3616,0.85164 1.47644,1.66075 1.15235,2.52735 -0.31255,0.83575 -1.62553,0.73941 -2.4375,1.10937 -0.81197,0.36996 -1.54329,1.11438 -2.43555,1.10938 -1.67346,-0.01 -3.03188,-1.41563 -4.54297,-2.13477 -12.64349,-6.01712 -26.52133,-9.99433 -37.84375,-18.23242 -1.89846,-1.3813 -4.40025,-2.79558 -4.86133,-5.09766 -0.10412,-0.51987 0.4367,-0.97129 0.57032,-1.48437 0.33564,-1.28887 0.47511,-2.62663 0.57031,-3.95508 0.0589,-0.82114 -0.32403,-1.7139 0,-2.4707 1.2691,-2.96412 5.01813,-4.13239 7,-6.67578 6.36902,-8.17356 15.57701,-16.6982 15.30469,-27.05664 -0.22504,-8.56002 -7.0267,-16.43115 -13.80469,-21.66407 -8.32016,-6.42355 -19.73696,-7.47409 -30.01758,-9.66406 -9.23897,-1.96808 -18.73166,-2.72423 -28.17187,-3.0625 -2.06312,-0.0739 -4.3154,-0.63936 -6.18946,0.22656 -5.42926,2.50862 -9.95344,7.65436 -12.12109,13.22852 -0.47684,1.2262 0,2.6316 0,3.94726 0,1.31566 1.00558,3.09888 0,3.94727 -1.22769,1.03578 -3.15093,-0.65869 -4.75,-0.81055 -12.89979,-1.22508 -25.95444,0.29292 -38.86719,-0.78711 -1.38193,-0.11559 -3.13257,0.37108 -4.11523,-0.60742 -1.78206,-1.77451 -0.73506,-4.97606 -1.13477,-7.45898 -6.13939,-38.13685 -12.93524,-71.878316 -17.41015,-110.246096 -0.2046,-1.75421 -1.03864,-3.66598 -0.33789,-5.28711 0.18143,-0.41975 0.70421,-0.58361 1.05664,-0.875 0.35243,-0.29138 0.63423,-0.702657 1.05859,-0.873046 4.65227,-1.867951 10.00253,-0.696042 15,-1.09375 39.41239,-3.136501 78.74103,-7.299883 118.17187,-10.195313 3.05473,-0.22431 6.36627,0.672269 9.17188,-0.556641 3.89335,-1.70536 8.04404,-4.741011 9.19726,-8.832031 0.94652,-3.35767 -0.9884,-7.056917 -2.65234,-10.123047 -1.59998,-2.94828 -3.91268,-5.688499 -6.77148,-7.443359 -2.74562,-1.68538 -6.11773,-2.214683 -9.32032,-2.564453 -0.32661,-0.03567 -0.65657,0.0059 -0.98046,-0.04687 z M 77.921875,18.001953 c -0.613339,0.0049 -1.224301,0.02219 -1.830078,0.04102 -1.46851,0.04563 -3.069695,-0.04951 -4.359375,0.654297 -2.74139,1.49605 -5.354921,4.029375 -6.181641,7.041015 -0.32467,1.18274 0.440322,2.411555 0.675781,3.615235 0.758771,3.87886 1.843452,7.700717 2.375,11.617187 0.718941,5.29718 0.678427,10.67026 1.091797,16 0.29754,3.83625 0.65322,7.66789 1,11.5 1.25222,13.83792 2.571577,27.669603 3.904297,41.499993 0.51404,5.33449 1.112775,10.66104 1.578125,16 0.78373,8.99168 1.014862,18.0332 2.044922,27 0.21171,1.84293 0.63626,3.65726 0.849609,5.5 0.538331,4.64961 0.754558,9.33107 1.085938,14 0.60303,8.49625 1.266378,16.99069 1.642578,25.5 0.31662,7.16174 0.758635,14.33539 0.515625,21.5 -0.1432,4.22195 -0.09859,8.53279 -1.162109,12.6211 -0.57409,2.20687 -1.464805,4.3851 -2.771485,6.2539 -2.51033,3.59025 -5.770511,6.7583 -9.457031,9.125 -2.45606,1.57676 -5.267212,2.74567 -8.15039,3.19922 -11.714371,1.84276 -23.649393,-2.20622 -35.507813,-2.19922 -5.76518,0.003 -11.792809,-0.73452 -17.2617188,1.08985 -1.87241,0.62462 -3.4162187,2.00664 -4.9492187,3.25 -0.42671,0.34609 -0.9286919,0.66652 -1.1699219,1.16015 -1.62919996,3.33378 -2.53351748,7.54074 -1.33593748,11.05274 0.78865998,2.31281 3.28717818,3.63251 5.14257808,5.22265 2.2880001,1.96089 4.6019908,4.01835 7.3378908,5.28125 1.77478,0.81925 3.783412,0.99338 5.695312,1.40039 1.82208,0.38789 3.64283,0.84614 5.5,0.99219 7.88661,0.62022 15.816423,-0.39621 23.726563,-0.50976 7.24191,-0.10399 14.580892,1.02309 21.726562,-0.15821 1.48048,-0.24475 2.870768,-0.88483 4.273438,-1.41797 5.46688,-2.07792 10.806812,-4.48355 16.11914,-6.92968 2.64734,-1.219 5.480474,-2.15447 7.845704,-3.85742 1.72629,-1.24294 3.093884,-2.92899 4.486324,-4.53711 3.31258,-3.82567 6.53397,-7.78246 9.15821,-12.10938 0.87443,-1.44178 1.79063,-2.92685 2.16797,-4.57031 0.88988,-3.87572 0.19146,-7.95413 0.10156,-11.92969 -0.19939,-8.82025 -0.71154,-17.63583 -1.42188,-26.42969 -0.40491,-5.01268 -1.09364,-9.99832 -1.61718,-15 -0.6976,-6.6645 -1.42885,-13.32605 -2.0293,-20 -0.61419,-6.82677 -1.0284,-13.67032 -1.60938,-20.5 -0.55325,-6.50376 -1.05444,-13.014 -1.78711,-19.5 -0.30202,-2.67363 -0.76783,-5.3271 -1.07617,-8 -1.01699,-8.81585 -1.79755,-17.65804 -2.55468,-26.499993 -1.49076,-17.40912 -2.807834,-34.833584 -3.912114,-52.271484 -0.32217,-5.08741 1.208094,-10.584188 -0.791016,-15.273438 -0.4444,-1.04242 -1.475215,-1.730462 -2.328125,-2.476562 -1.06867,-0.93484 -2.269414,-1.712406 -3.464844,-2.478516 -0.99412,-0.63709 -2.063852,-1.148089 -3.076172,-1.755859 -1.62993,-0.97856 -3.022328,-2.434826 -4.824218,-3.041016 -1.723305,-0.579757 -3.575999,-0.686458 -5.416016,-0.671879 z M 417.03906,146.43359 c -2.2871,0.0128 -4.57663,0.37108 -6.70703,1.03711 -3.03281,0.94816 -6.53025,2.53277 -7.83594,5.42969 -0.67459,1.49672 0.28799,3.2751 0.58008,4.89063 0.36847,2.03795 0.99528,4.02039 1.47461,6.03515 1.23882,5.20702 2.60908,10.38834 3.61914,15.64453 0.66824,3.47743 1.12074,6.99337 1.61328,10.5 1.06333,7.57028 2.35173,15.12484 2.89649,22.75 0.0653,0.91445 0.691,2.09954 0.0449,2.75 -1.11582,1.12342 -3.16959,0.0541 -4.75,-0.043 -3.09747,-0.19027 -6.1705,-0.67103 -9.25,-1.05468 -2.58256,-0.32174 -5.94552,0.83968 -7.73828,-1.04688 -1.65394,-1.74048 -0.47796,-4.77982 -0.59961,-7.17773 -0.67537,-13.31287 2.7731,-27.11791 -0.71875,-39.98242 -0.95661,-3.52429 -2.45891,-7.34482 -5.36914,-9.55079 -2.41111,-1.82763 -5.8163,-1.78456 -8.82031,-2.14453 -1.61441,-0.19345 -3.251,0 -4.87696,0 -1.62596,0 -3.2839,-0.32549 -4.87695,0 -1.66515,0.34022 -3.31514,1.00282 -4.69141,2 -0.62823,0.45519 -1.07201,1.12616 -1.5332,1.75 -1.10636,1.49653 -2.24018,3.0237 -2.93555,4.75 -0.70075,1.73968 -1.22845,3.62498 -1.18554,5.5 0.054,2.36234 1.37807,4.53048 1.81054,6.85352 1.23297,6.62285 1.71265,13.36999 2.21485,20.08789 0.39128,5.2342 2.95036,11.03168 0.61914,15.73437 -0.41851,0.84424 -1.54266,1.08247 -2.31446,1.62305 -0.77179,0.54058 -1.73319,0.87946 -2.31445,1.62109 -1.67165,2.13291 -2.43802,4.91695 -2.93945,7.58008 -0.34572,1.8361 -0.45191,3.78923 -0.0137,5.60547 0.2373,0.98341 0.84895,1.84287 1.39062,2.69727 1.1726,1.84959 2.5402,3.58063 3.99805,5.21484 0.80393,0.90119 2.11644,1.41141 2.60547,2.51563 2.43508,5.4984 0.3723,12.02259 0.55859,18.0332 0.18629,6.01061 -0.74354,12.16043 0.55859,18.03125 0.48851,2.20247 1.30816,4.4216 2.67188,6.21875 2.58737,3.40973 5.86529,6.94794 10,8.05469 5.66014,1.51507 12.43606,0.452 17.36719,-2.71289 2.63393,-1.69051 4.57648,-4.75937 5.18164,-7.83008 0.35569,-1.80488 -0.68761,-3.61513 -1.07227,-5.41406 -1.48868,-6.962 -3.71978,-13.77689 -4.7832,-20.81641 -0.49834,-3.29889 -2.9749,-7.50312 -0.74024,-9.98047 2.37927,-2.63766 7.10053,-0.25629 10.65235,-0.30859 4.05402,-0.0597 8.12923,-0.40422 12.16406,-0.006 0.51123,0.0505 1.18711,-0.097 1.50977,0.30273 1.53153,1.89742 -0.0742,4.87633 -0.11133,7.31445 -0.0371,2.43814 -0.8685,4.9966 -0.11133,7.31446 1.46124,4.4732 4.3375,9.08542 8.50781,11.26562 5.89344,3.08103 13.33653,1.6087 19.93555,0.78516 0.91456,-0.11413 1.86568,-0.30176 2.65039,-0.78516 1.9021,-1.17175 3.8676,-2.77067 4.58984,-4.88476 1.63637,-4.78982 -0.92135,-10.08162 -1.45312,-15.11524 -0.0881,-0.83421 -0.79973,-1.83601 -0.28711,-2.5 0.45867,-0.59412 1.48542,-0.21079 2.22851,-0.3164 0.74311,-0.10561 1.56961,0.043 2.22852,-0.31641 3.23746,-1.7659 6.10209,-4.85946 7.24024,-8.36719 1.3423,-4.13701 0.81904,-9.10641 -1.11915,-13 -1.61627,-3.24691 -4.83655,-5.67193 -8.08789,-7.27929 -1.02905,-0.50873 -2.25651,-0.42311 -3.38476,-0.63477 -1.12825,-0.21166 -2.50501,0.10264 -3.38477,-0.63476 -0.74425,-0.62383 -0.77122,-1.78841 -1.02929,-2.72461 -0.8302,-3.01161 -1.1769,-6.13842 -1.64844,-9.22657 -1.74977,-11.45926 -2.62636,-23.04056 -4.375,-34.5 -0.25539,-1.67366 -0.35485,-3.39463 -0.89258,-5 -0.41556,-1.24061 -1.09839,-2.3816 -1.77734,-3.5 -1.43617,-2.36571 -3.07618,-4.61241 -4.83399,-6.75 -0.94475,-1.14886 -1.9533,-2.25247 -3.05664,-3.25 -0.81258,-0.73465 -1.57007,-1.648 -2.60742,-2 -2.11371,-0.71724 -4.39845,-1.04991 -6.68555,-1.03711 z m -123.15234,6.1836 c -3.26281,-0.0234 -6.51893,0.27765 -9.66211,0.88672 -4.89199,0.94794 -9.25381,3.87156 -13.38477,6.6582 -2.44307,1.64803 -4.85339,3.50291 -6.61523,5.86523 -1.67383,2.24431 -2.80164,4.91508 -3.54883,7.61328 -1.042,3.76283 -1.88121,7.80259 -1.21875,11.6504 1.02007,5.92493 4.08282,11.52677 7.76758,16.27734 1.17486,1.51469 2.9052,2.50214 4.41016,3.68945 10.26672,8.09974 21.45018,15.02174 31.48242,23.41016 2.31657,1.93699 4.99236,3.64579 6.60742,6.19726 1.70523,2.69393 2.58511,5.93566 2.92773,9.10547 0.53465,4.94639 1.78786,11.06104 -1.42773,14.85742 -0.66343,0.78328 -1.95399,0.88433 -2.97656,0.79493 -1.69377,-0.14808 -3.18218,-1.24975 -4.62305,-2.15235 -3.92665,-2.45976 -7.03082,-6.05302 -10.77734,-8.77929 -3.51676,-2.55907 -6.75854,-5.94013 -10.95313,-7.08985 -4.3859,-1.20215 -9.45982,-1.27048 -13.63281,0.53711 -2.19555,0.95103 -3.8724,2.9933 -5.11328,5.03906 -1.29702,2.13832 -2.28177,4.67225 -2.20117,7.17188 0.11432,3.5439 1.65826,7.10005 3.77148,9.94727 6.33136,8.53039 15.46223,15.31644 25.25195,19.4414 7.36195,3.10201 15.75776,2.81424 23.72657,3.37891 l 0.002,0 c 0.83416,-0.0215 1.67265,-0.0204 2.5,-0.12891 4.51411,-0.59213 9.27717,-0.82404 13.35937,-2.83984 3.07564,-1.51875 5.64472,-4.03784 7.81836,-6.69141 3.22004,-3.93101 6.29929,-8.35427 7.4375,-13.30664 1.58403,-6.89209 0.29811,-14.27466 -1.22851,-21.17969 -1.00622,-4.55121 -2.96145,-8.88484 -5.15039,-13 -2.82917,-5.31877 -6.32927,-10.30493 -10.21094,-14.91211 -1.5721,-1.86594 -3.5,-3.39939 -5.25,-5.09961 -1.75,-1.70022 -4.30006,-2.85392 -5.25,-5.10156 -0.29223,-0.69143 -0.38254,-1.60609 0,-2.25195 1.45318,-2.45349 5.62517,-1.96377 7.50195,-4.11133 1.76777,-2.02282 2.40543,-4.88156 2.89258,-7.52344 0.91998,-4.98916 1.34004,-10.33542 -0.0352,-15.21875 -1.21018,-4.2975 -3.98694,-8.11322 -6.96289,-11.4414 -3.19195,-3.56975 -6.8962,-7.0637 -11.36328,-8.78907 -4.97769,-1.92258 -10.43307,-2.86529 -15.87109,-2.90429 z m -110.00586,10.19726 c -5.68322,-0.11601 -11.3963,1.25224 -16.97852,2.40625 -3.68811,0.76244 -7.56692,1.35291 -10.82031,3.25 -3.73191,2.17611 -6.77085,5.5067 -9.35742,8.9668 -3.91256,5.2339 -6.74442,11.28246 -9.00391,17.41406 -2.02595,5.49785 -3.21365,11.31157 -3.99023,17.11914 -1.55564,11.63373 -3.6947,23.69776 -1.29688,35.1875 0.59439,2.84818 2.25815,5.38936 3.78321,7.86719 2.91074,4.72919 6.23904,9.26899 10.15039,13.21094 1.23436,1.24402 2.6172,2.375 4.14453,3.23437 10.77422,6.06221 22.46001,11.28979 34.68359,13.13868 2.48143,0.37531 5.02087,-0.17636 7.51367,-0.4668 8.73942,-1.01824 17.46446,-2.39708 26.01563,-4.46875 3.39664,-0.8229 6.80296,-1.73857 10,-3.15039 3.01115,-1.32973 5.96784,-2.90326 8.53711,-4.96094 3.24146,-2.59602 6.15269,-5.69353 8.46289,-9.14453 1.2272,-1.83319 2.04184,-3.92799 2.77734,-6.00781 0.51147,-1.44633 1.07445,-2.92956 1.12305,-4.46289 0.44542,-14.05403 -2.40846,-28.44486 -7.68945,-41.47657 -3.66601,-9.04646 -9.99713,-16.85703 -16.21094,-24.38476 -2.90857,-3.52359 -6.28762,-6.65921 -9.77149,-9.61524 -0.84397,-0.7161 -1.75798,-1.34519 -2.68164,-1.95508 -3.25874,-2.15164 -6.51106,-4.37669 -10.06445,-5.99609 -5.39386,-2.45817 -10.9952,-4.96088 -16.89258,-5.55859 -0.81017,-0.0821 -1.6217,-0.12991 -2.43359,-0.14649 z m 1084.69724,2.55469 c -3.7184,0.0625 -7.4773,0.89649 -10.8008,2.28125 -3.0391,1.26634 -5.7899,3.73753 -7.2832,6.67188 -1.3276,2.609 -1.6172,5.87034 -0.9843,8.72851 0.4443,2.00672 1.9458,3.64337 3.2129,5.26172 1.1569,1.47779 2.6404,2.66823 3.9609,4.00195 1.3204,1.33371 3.0685,2.34899 3.9609,4 0.3774,0.69811 0.3792,1.5435 0.4981,2.32813 1.7201,11.35389 2.6007,22.83784 3.0976,34.31054 0.072,1.65943 1.0406,3.70447 -0.017,4.98438 -0.7666,0.92681 -2.3931,1.04018 -3.543,0.6875 -4.0545,-1.24353 -6.1149,-5.88373 -8.9785,-9.01172 -7.3376,-8.01485 -14.4158,-16.29239 -20.9785,-24.95312 -0.5292,-0.69832 -0.9824,-1.45113 -1.4805,-2.17188 -0.99,-1.43233 -2.1089,-2.77953 -3,-4.27539 -0.5812,-0.97558 -1.0632,-2.00902 -1.5195,-3.04883 -2.2551,-5.13799 -3.229,-10.84939 -6,-15.72851 -0.9118,-1.60542 -2.0221,-3.15568 -3.4336,-4.34571 -1.3955,-1.17644 -3.1713,-1.81262 -4.8086,-2.61914 -1.0847,-0.53427 -2.1854,-1.03933 -3.3164,-1.46679 -1.5527,-0.58683 -3.0933,-1.36999 -4.7481,-1.5 -2.445,-0.1921 -4.8727,0.60955 -7.2773,1.09179 -1.5061,0.30204 -3.1801,0.289 -4.4688,1.125 -1.7858,1.15848 -3.2558,3.00633 -3.9472,5.01953 -0.3374,0.98208 -0.152,2.0904 0.016,3.11524 0.7296,4.47226 2.672,8.66533 4.2578,12.91015 1.7964,4.8086 4.5049,9.27815 5.9453,14.20508 0.5222,1.78616 0.7217,3.65426 0.959,5.5 0.7465,5.80584 1.0945,11.65784 1.4609,17.5 0.2506,3.99567 0.7102,8.00179 0.5039,12 -0.1301,2.52316 -0.7724,4.99424 -1.0957,7.5 -0.4162,3.22697 -0.6348,6.47888 -1.0859,9.70118 -0.5461,3.90089 -2.8119,7.80687 -1.959,11.65234 0.9489,4.2782 4.1018,8.00697 7.4551,10.82812 1.6967,1.42746 3.86,2.4014 6.0449,2.7793 4.3602,0.75414 9.1507,0.56048 13.2207,-1.17578 2.7586,-1.17682 5.5386,-3.18553 6.7793,-5.91602 2.1283,-4.68382 0,-10.29085 0,-15.43554 0,-5.14468 -3.6381,-11.79606 0,-15.4336 0.2744,-0.27438 0.8006,-0.13604 1.1641,0 5.9917,2.24284 9.636,8.41826 14.4765,12.60157 2.0911,1.80717 4.1221,3.68795 6.293,5.39843 1.5663,1.23412 3.1088,2.52933 4.8496,3.50196 4.0897,2.28503 8.5185,3.95696 12.9785,5.39062 1.5523,0.49896 3.1444,0.93409 4.7657,1.10742 3.1395,0.33566 6.426,0.68989 9.4707,-0.14648 2.2232,-0.61072 4.6047,-1.60589 6,-3.44141 4.3693,-5.7481 4.8527,-13.78364 5.3554,-20.98633 0.7922,-11.34992 -2.7144,-22.59673 -3.7636,-33.92578 -0.4624,-4.99244 -0.7435,-10 -1.1153,-15 -0.3718,-5 -0.2359,-10.0639 -1.1152,-15 -0.6688,-3.75434 -1.1849,-7.72744 -3.1426,-11 -2.0241,-3.38345 -4.7965,-6.846 -8.4844,-8.24023 -2.6193,-0.99026 -5.4868,-1.40994 -8.3789,-1.36133 z m -278.51169,4.75391 c -0.98155,0.008 -1.95892,0.1014 -2.92188,0.29687 -3.58536,0.72781 -7.08313,3.04211 -9.15039,6.06055 -2.98674,4.361 -2.52258,10.27529 -3.38476,15.49023 -0.84813,5.12988 -1.2822,10.32175 -1.75196,15.5 -0.37733,4.15937 -0.81442,8.32377 -0.85742,12.5 -0.14082,13.68163 -1.81611,27.85043 1.96484,41 1.06999,3.72126 3.09142,7.25768 5.69141,10.12696 2.06708,2.28117 4.74936,4.05611 7.56836,5.29296 2.79215,1.2251 5.89361,2.20036 8.93359,1.96485 2.64325,-0.20478 5.1318,-1.53043 7.4121,-2.88281 2.2918,-1.35918 4.6857,-2.90112 6.1172,-5.14844 1.4849,-2.3312 2.2829,-5.2449 2.1543,-8.00586 -0.1449,-3.10981 -1.7374,-6.03617 -3.2559,-8.75391 -0.4738,-0.84798 -1.3937,-1.41135 -1.7929,-2.29687 -3.3515,-7.43311 -3.5194,-15.95023 -4.4825,-24.04688 -0.3055,-2.56879 -2.1887,-5.87343 -0.4082,-7.75 0.1807,-0.1904 0.5728,-0.14873 0.7891,0 6.6177,4.55124 6.1785,14.84874 8.6211,22.5 0.9421,2.9512 1.5451,6.00013 2.3184,9 0.6874,2.66678 1.7131,5.26829 2.0625,8 0.3249,2.54094 0.011,5.12392 0.016,7.68555 0.01,2.56163 -0.45,5.16652 0.016,7.68555 0.3093,1.67446 0.7696,3.42891 1.8145,4.77343 3.7968,4.8858 9.1575,9.28143 15.1855,10.67774 3.7419,0.86676 7.7252,-0.62385 11.3789,-1.80859 1.7367,-0.56314 3.588,-1.19341 4.8848,-2.47852 1.4125,-1.39977 2.4623,-3.32693 2.748,-5.29492 0.4448,-3.0637 -1.1705,-6.07917 -1.7558,-9.11914 -0.5854,-3.03997 -1.4638,-6.03928 -1.7578,-9.1211 -0.478,-5.0097 0,-10.06521 0,-15.09765 0,-5.03244 -0.9826,-10.16011 0,-15.09571 1.2745,-6.4025 2.8229,-13.53749 7.5,-18.09179 0.7822,-0.76172 2.0689,-1.63512 3.0585,-1.17383 5.34,2.48911 4.4268,10.9706 5.7618,16.70898 0.5992,2.57575 0.5495,5.26355 0.9902,7.8711 0.2909,1.72104 0.9054,3.38737 1.0898,5.12304 0.3656,3.4401 0.063,6.91772 0.024,10.37696 -0.052,4.49256 -0.023,8.9929 -0.3399,13.47461 -0.073,1.03634 -0.6036,2.0859 -0.3593,3.0957 0.9496,3.92535 3.6858,7.42679 6.7441,10.06445 2.0619,1.77839 4.7506,2.79778 7.3809,3.50196 4.0995,1.09748 8.6714,2.38562 12.6894,1.01953 0.887,-0.30159 1.4515,-1.19551 2.084,-1.88672 1.3127,-1.43464 2.4813,-3.00887 3.5176,-4.6543 0.5538,-0.8793 0.44,-2.45866 1.4316,-2.76953 0.797,-0.24987 1.5029,0.73321 2.2149,1.16992 1.9799,1.21434 3.8445,2.6117 5.6933,4.01758 1.1924,0.90681 2.0676,2.34195 3.4785,2.8457 2.1235,0.7582 4.5761,0.54657 6.7637,0 4.257,-1.06366 8.8152,-2.81465 11.6172,-6.1914 1.894,-2.28245 1.9321,-5.6141 2.6641,-8.48828 0.2667,-1.04726 0.072,-2.25455 0.6269,-3.18164 0.2624,-0.4382 0.7904,-0.64715 1.1856,-0.97071 0.3952,-0.32356 0.7182,-0.76913 1.1875,-0.9707 1.5435,-0.66293 3.3338,-0.41565 5,-0.62891 3.0904,-0.39554 6.1788,-0.79607 9.2675,-1.20508 1.4234,-0.18849 2.8895,-0.97207 4.2696,-0.57617 0.5666,0.16252 0.9057,0.75249 1.3593,1.12891 0.4536,0.37642 1.0595,0.62269 1.3614,1.1289 0.5244,0.87937 0.4027,2.00773 0.6035,3.01172 0.2008,1.00398 4.06,6.14305 4.6016,7.01172 2.9119,4.66743 7.8315,8.48448 13.1132,10.02344 3.4488,1.00492 7.2926,0.10007 10.7364,-0.92188 0.7335,-0.21764 1.4221,-0.60904 2.0234,-1.08203 2.4261,-1.90828 5.3917,-3.91934 6.1699,-6.90625 0.9197,-3.53025 -5.1602,-11.24455 -6.3828,-14.68164 -2.6617,-7.48228 -6.4595,-14.56746 -10.6641,-21.30468 -2.9894,-4.78998 -7.1238,-8.78188 -10.2753,-13.4668 -2.8312,-4.20884 -5.3114,-8.64875 -7.7266,-13.10938 -1.6096,-2.9729 -2.9573,-6.08075 -4.502,-9.08789 -0.7963,-1.55006 -1.7152,-3.03746 -2.455,-4.61523 -0.7637,-1.62873 -1.2915,-3.36079 -2.0411,-4.9961 -0.6238,-1.36084 -1.0535,-2.87491 -2.041,-4 -1.9108,-2.17691 -4.4518,-3.90311 -7.164,-4.91992 -5.5401,-2.07693 -12.048,-4.00553 -17.6309,-2.04687 -3.5612,1.24934 -6.4326,4.59795 -7.9648,8.04687 -0.9827,2.21216 -0.2695,4.83313 -0.4043,7.25 -0.1347,2.41687 -0.078,4.85145 -0.4043,7.25 -1.3179,9.69307 -1.9629,19.88102 -6.25,28.67383 -0.4974,1.02022 -1.2353,1.98294 -2.1739,2.62109 -1.4214,0.96638 -3.184,1.55767 -4.9023,1.60157 -2.0955,0.0536 -4.587,-0.16343 -6.0684,-1.64649 -3.5452,-3.54912 -2.3569,-9.76252 -3.9257,-14.52734 -0.5036,-1.52952 -1.1739,-2.99857 -1.7559,-4.5 -0.7385,-1.90541 -1.3826,-3.85025 -2.2012,-5.72266 -3.6942,-8.44953 -7.473,-16.91342 -12.209,-24.82617 -0.9111,-1.52225 -1.7046,-3.23008 -3.0996,-4.32617 -3.1831,-2.50105 -7.3084,-3.67467 -11.2636,-4.53711 -1.4437,-0.3148 -2.9531,-0.25968 -4.4297,-0.20508 -2.5478,0.0943 -5.2365,-0.0583 -7.5918,0.91797 -4.123,1.70908 -7.5947,4.90817 -10.5332,8.26758 -2.3821,2.72343 -3.6707,6.23718 -5.5059,9.35547 -1.8352,3.11829 -2.3648,7.55748 -5.5058,9.35351 -0.304,0.17383 -0.7006,0 -1.0508,0 -0.3502,0 -0.7557,0.18863 -1.0508,0 -3.5372,-2.26102 -3.2528,-7.7573 -5.2871,-11.42968 -1.7361,-3.13408 -3.8681,-6.03343 -5.877,-9 -1.3861,-2.04681 -2.5212,-4.31499 -4.2617,-6.07032 -1.8843,-1.90023 -4.069,-3.61966 -6.5312,-4.66797 -3.91765,-1.66799 -8.27989,-3.21644 -12.53324,-3.17968 z m -687.99997,8.38292 c 0.93536,0.45012 2.07502,0.93246 2.47458,1.89051 0.74638,1.78963 0.17175,4.05995 -0.74348,5.7694 -0.51043,0.95337 -1.3669,2.15758 -2.44793,2.12901 -0.68183,-0.018 -1.00768,-0.92181 -1.47088,-1.42247 -1.27924,-1.3827 -3.44567,-2.47762 -3.60139,-4.35487 -0.11653,-1.40473 1.08065,-2.70726 2.1211,-3.6582 0.48166,-0.44022 1.12521,-0.76383 1.77476,-0.82604 0.64749,-0.062 1.30713,0.1906 1.89324,0.47266 z m 377.99215,6.77919 c 4.89087,0.15794 10.07474,2.42425 13.16602,5.79882 0.94053,1.02672 1.02921,2.80843 0.60547,4.13477 -0.65,2.03457 -2.92053,3.1175 -4.4336,4.625 -2.78689,2.77663 -6.00391,5.13646 -8.55078,8.13477 -0.91203,1.07369 -1.13357,2.83358 -2.3789,3.49218 -0.53999,0.28558 -1.22314,0 -1.83399,0 -0.61085,0 -1.34718,0.37156 -1.83203,0 -1.12098,-0.85909 -0.85271,-2.70154 -1.10156,-4.09179 -1.02671,-5.73595 -2.6292,-11.67419 -1.5918,-17.40821 0.23057,-1.27445 0.51807,-2.94338 1.6875,-3.5 1.87829,-0.89401 4.04055,-1.25734 6.26367,-1.18554 z m -491.27539,7.08007 c 2.53185,-0.0437 5.0199,0.24249 7.30274,1.20704 2.06128,0.87094 3.27624,3.05232 4.81836,4.67382 1.67859,1.765 3.30945,3.58164 4.82031,5.49219 0.8919,1.12784 1.72828,2.30238 2.5,3.51563 2.21151,3.47677 4.18694,7.10292 6.08594,10.75976 0.5879,1.1321 1.34772,2.21546 1.64062,3.45703 1.77208,7.51173 3.48179,16.04212 0.47071,23.14844 -1.1176,2.63758 -3.98026,4.16391 -6.29493,5.85156 -1.28864,0.93956 -2.73128,1.6598 -4.17383,2.33985 -3.63175,1.7121 -7.31579,3.45458 -11.22851,4.35547 -3.74837,0.86303 -7.70824,1.59941 -11.5,0.95312 -4.85881,-0.82817 -9.63381,-2.97601 -13.5,-6.0332 -0.8608,-0.68068 -1.50624,-1.63519 -2,-2.61524 -1.48273,-2.94304 -2.34573,-6.22802 -2.73828,-9.5 -0.71533,-5.96246 0.25365,-12.01549 0.75195,-18 0.16725,-2.00864 0.29766,-4.03582 0.75,-6 0.49078,-2.13108 1.36524,-4.15475 2.11524,-6.20898 1.19639,-3.27689 2.41722,-6.54848 3.80273,-9.75 0.51917,-1.19965 0.84599,-2.54074 1.6875,-3.54102 0.69182,-0.82234 1.671,-1.38199 2.63086,-1.86523 1.40951,-0.70961 2.93811,-1.24541 4.5,-1.4707 2.45285,-0.35381 5.02675,-0.72587 7.55859,-0.76954 z m 947.4277,18.56836 c 0.183,-0.013 0.361,-0.002 0.5176,0.082 3.5403,1.89451 5.1434,7.26207 6.8516,9.90821 1.7081,2.64614 3.1576,4.2995 3.5312,5.87109 0.3737,1.57159 0.7536,1.84876 -0.2129,2.83203 -0.9664,0.98328 -3.5484,0.36738 -5.4082,0.5 -1.8597,0.13263 -4.4236,0.73007 -5.748,0.28907 -1.3244,-0.44101 -1.3351,-0.37408 -2.0137,-1.67383 -0.6786,-1.29976 -0.5621,-3.21827 -0.5234,-6.15625 0.039,-2.93798 -1.3445,-8.59894 1.2695,-11.38086 0.2754,-0.29313 0.7885,-0.17559 1.1895,-0.20703 0.1771,-0.0139 0.3638,-0.0515 0.5468,-0.0645 z"
       style="fill:#335" />
  </g>
</svg>
